<svg preserveAspectRatio="none" overflow="visible" style="display: block;" width="199.219" height="344" viewBox="0 0 199.219 344" fill="none" xmlns="http://www.w3.org/2000/svg">
<g id=":(">
<path d="M58.8 267.6C58.8 275.6 55.8667 282.4 50 288C44.4 293.6 37.4667 296.4 29.2 296.4C21.2 296.4 14.2667 293.6 8.4 288C2.8 282.4 0 275.6 0 267.6C0 259.6 2.8 252.8 8.4 247.2C14.2667 241.6 21.2 238.8 29.2 238.8C37.4667 238.8 44.4 241.6 50 247.2C55.8667 252.8 58.8 259.6 58.8 267.6ZM58.8 121.6C58.8 129.6 55.8667 136.4 50 142C44.4 147.6 37.4667 150.4 29.2 150.4C21.2 150.4 14.2667 147.6 8.4 142C2.8 136.4 0 129.6 0 121.6C0 113.6 2.8 106.8 8.4 101.2C14.2667 95.6 21.2 92.8 29.2 92.8C37.4667 92.8 44.4 95.6 50 101.2C55.8667 106.8 58.8 113.6 58.8 121.6Z" fill="white"/>
<path d="M99.2188 172C99.2188 139.733 104.019 109.2 113.619 80.4C123.485 51.3333 137.619 24.5333 156.019 0H199.219C180.285 27.7333 166.152 55.8667 156.819 84.4C147.485 112.667 142.819 141.867 142.819 172C142.819 230.933 161.619 288.267 199.219 344H156.019C137.619 319.467 123.485 292.667 113.619 263.6C104.019 234.533 99.2188 204 99.2188 172Z" fill="white"/>
</g>
</svg>
